<?xml version="1.0" encoding="UTF-8"?><svg xmlns="http://www.w3.org/2000/svg" xmlns:xlink="http://www.w3.org/1999/xlink" fill-opacity="1" color-rendering="auto" color-interpolation="auto" text-rendering="auto" stroke="black" stroke-linecap="square" width="641" stroke-miterlimit="10" shape-rendering="auto" stroke-opacity="1" fill="black" stroke-dasharray="none" font-weight="normal" stroke-width="1" height="453" font-family="'Dialog'" font-style="normal" stroke-linejoin="miter" font-size="12px" stroke-dashoffset="0" image-rendering="auto">
  <!--Generated by ySVG 2.5-->
  <defs id="genericDefs"/>
  <g>
    <defs id="defs1">
      <linearGradient x1="789" gradientUnits="userSpaceOnUse" x2="869" y1="192" y2="232" id="linearGradient1" spreadMethod="reflect">
        <stop stop-opacity="1" stop-color="rgb(232,238,247)" offset="0%"/>
        <stop stop-opacity="1" stop-color="rgb(183,201,227)" offset="100%"/>
      </linearGradient>
      <linearGradient x1="731.5" gradientUnits="userSpaceOnUse" x2="926.5" y1="289" y2="329" id="linearGradient2" spreadMethod="reflect">
        <stop stop-opacity="1" stop-color="rgb(232,238,247)" offset="0%"/>
        <stop stop-opacity="1" stop-color="rgb(183,201,227)" offset="100%"/>
      </linearGradient>
      <linearGradient x1="1147" gradientUnits="userSpaceOnUse" x2="1342" y1="386" y2="426" id="linearGradient3" spreadMethod="reflect">
        <stop stop-opacity="1" stop-color="rgb(232,238,247)" offset="0%"/>
        <stop stop-opacity="1" stop-color="rgb(183,201,227)" offset="100%"/>
      </linearGradient>
      <linearGradient x1="1147" gradientUnits="userSpaceOnUse" x2="1342" y1="574.5" y2="614.5" id="linearGradient4" spreadMethod="reflect">
        <stop stop-opacity="1" stop-color="rgb(232,238,247)" offset="0%"/>
        <stop stop-opacity="1" stop-color="rgb(183,201,227)" offset="100%"/>
      </linearGradient>
      <linearGradient x1="1147" gradientUnits="userSpaceOnUse" x2="1342" y1="448" y2="488" id="linearGradient5" spreadMethod="reflect">
        <stop stop-opacity="1" stop-color="rgb(232,238,247)" offset="0%"/>
        <stop stop-opacity="1" stop-color="rgb(183,201,227)" offset="100%"/>
      </linearGradient>
      <linearGradient x1="1147" gradientUnits="userSpaceOnUse" x2="1342" y1="510" y2="550" id="linearGradient6" spreadMethod="reflect">
        <stop stop-opacity="1" stop-color="rgb(232,238,247)" offset="0%"/>
        <stop stop-opacity="1" stop-color="rgb(183,201,227)" offset="100%"/>
      </linearGradient>
      <linearGradient x1="731.5" gradientUnits="userSpaceOnUse" x2="926.5" y1="386" y2="426" id="linearGradient7" spreadMethod="reflect">
        <stop stop-opacity="1" stop-color="rgb(232,238,247)" offset="0%"/>
        <stop stop-opacity="1" stop-color="rgb(183,201,227)" offset="100%"/>
      </linearGradient>
      <linearGradient x1="731.5" gradientUnits="userSpaceOnUse" x2="926.5" y1="483" y2="523" id="linearGradient8" spreadMethod="reflect">
        <stop stop-opacity="1" stop-color="rgb(232,238,247)" offset="0%"/>
        <stop stop-opacity="1" stop-color="rgb(183,201,227)" offset="100%"/>
      </linearGradient>
      <clipPath clipPathUnits="userSpaceOnUse" id="clipPath1">
        <path d="M0 0 L641 0 L641 453 L0 453 L0 0 Z"/>
      </clipPath>
      <clipPath clipPathUnits="userSpaceOnUse" id="clipPath2">
        <path d="M716 177 L1357 177 L1357 630 L716 630 L716 177 Z"/>
      </clipPath>
    </defs>
    <g fill="url(#linearGradient1)" text-rendering="geometricPrecision" shape-rendering="geometricPrecision" transform="matrix(1,0,0,1,-716,-177)" stroke="url(#linearGradient1)">
      <ellipse rx="40" ry="20" clip-path="url(#clipPath2)" cx="829" cy="212" stroke="none"/>
    </g>
    <g text-rendering="geometricPrecision" stroke-miterlimit="1.45" shape-rendering="geometricPrecision" transform="matrix(1,0,0,1,-716,-177)" stroke-linecap="butt">
      <ellipse rx="40" fill="none" ry="20" clip-path="url(#clipPath2)" cx="829" cy="212"/>
      <text x="810.2471" xml:space="preserve" y="216.5352" clip-path="url(#clipPath2)" font-family="sans-serif" stroke="none">START</text>
    </g>
    <g fill="url(#linearGradient2)" text-rendering="geometricPrecision" shape-rendering="geometricPrecision" transform="matrix(1,0,0,1,-716,-177)" stroke="url(#linearGradient2)">
      <path d="M731.5 289 L926.5 289 L926.5 329 L731.5 329 Z" stroke="none" clip-path="url(#clipPath2)"/>
    </g>
    <g text-rendering="geometricPrecision" stroke-miterlimit="1.45" shape-rendering="geometricPrecision" transform="matrix(1,0,0,1,-716,-177)" stroke-linecap="butt">
      <path fill="none" d="M731.5 289 L926.5 289 L926.5 329 L731.5 329 Z" clip-path="url(#clipPath2)"/>
      <text x="773.4121" xml:space="preserve" y="306.4688" clip-path="url(#clipPath2)" font-family="sans-serif" stroke="none">Google Apps Script</text>
      <text x="811.4629" xml:space="preserve" y="320.6016" clip-path="url(#clipPath2)" font-family="sans-serif" stroke="none">Install</text>
    </g>
    <g fill="url(#linearGradient3)" text-rendering="geometricPrecision" shape-rendering="geometricPrecision" transform="matrix(1,0,0,1,-716,-177)" stroke="url(#linearGradient3)">
      <path d="M1157 386 L1332 386 L1342 396 L1342 426 L1147 426 L1147 396 Z" stroke="none" clip-path="url(#clipPath2)"/>
    </g>
    <g text-rendering="geometricPrecision" stroke-miterlimit="1.45" shape-rendering="geometricPrecision" transform="matrix(1,0,0,1,-716,-177)" stroke-linecap="butt">
      <path fill="none" d="M1157 386 L1332 386 L1342 396 L1342 426 L1147 426 L1147 396 Z" clip-path="url(#clipPath2)"/>
      <text x="1211.1133" xml:space="preserve" y="410.5352" clip-path="url(#clipPath2)" font-family="sans-serif" stroke="none">parser() API</text>
    </g>
    <g fill="url(#linearGradient4)" text-rendering="geometricPrecision" shape-rendering="geometricPrecision" transform="matrix(1,0,0,1,-716,-177)" stroke="url(#linearGradient4)">
      <path d="M1147 574.5 L1342 574.5 L1342 604.5 L1332 614.5 L1157 614.5 L1147 604.5 Z" stroke="none" clip-path="url(#clipPath2)"/>
    </g>
    <g text-rendering="geometricPrecision" stroke-miterlimit="1.45" shape-rendering="geometricPrecision" transform="matrix(1,0,0,1,-716,-177)" stroke-linecap="butt">
      <path fill="none" d="M1147 574.5 L1342 574.5 L1342 604.5 L1332 614.5 L1157 614.5 L1147 604.5 Z" clip-path="url(#clipPath2)"/>
      <text x="1181.4326" xml:space="preserve" y="599.0352" clip-path="url(#clipPath2)" font-family="sans-serif" stroke="none">parser() API Response</text>
    </g>
    <g fill="url(#linearGradient5)" text-rendering="geometricPrecision" shape-rendering="geometricPrecision" transform="matrix(1,0,0,1,-716,-177)" stroke="url(#linearGradient5)">
      <path d="M1147 448 L1342 448 L1342 488 L1147 488 Z" stroke="none" clip-path="url(#clipPath2)"/>
    </g>
    <g text-rendering="geometricPrecision" stroke-miterlimit="1.45" shape-rendering="geometricPrecision" transform="matrix(1,0,0,1,-716,-177)" stroke-linecap="butt">
      <path fill="none" d="M1147 448 L1342 448 L1342 488 L1147 488 Z" clip-path="url(#clipPath2)"/>
      <text x="1210.1348" xml:space="preserve" y="472.5352" clip-path="url(#clipPath2)" font-family="sans-serif" stroke="none">Ruleset (*N)</text>
    </g>
    <g fill="url(#linearGradient6)" text-rendering="geometricPrecision" shape-rendering="geometricPrecision" transform="matrix(1,0,0,1,-716,-177)" stroke="url(#linearGradient6)">
      <path d="M1147 510 L1342 510 L1342 550 L1147 550 Z" stroke="none" clip-path="url(#clipPath2)"/>
    </g>
    <g text-rendering="geometricPrecision" stroke-miterlimit="1.45" shape-rendering="geometricPrecision" transform="matrix(1,0,0,1,-716,-177)" stroke-linecap="butt">
      <path fill="none" d="M1147 510 L1342 510 L1342 550 L1147 550 Z" clip-path="url(#clipPath2)"/>
      <text x="1193.6699" xml:space="preserve" y="534.5352" clip-path="url(#clipPath2)" font-family="sans-serif" stroke="none">Output Formatter</text>
    </g>
    <g fill="url(#linearGradient7)" text-rendering="geometricPrecision" shape-rendering="geometricPrecision" transform="matrix(1,0,0,1,-716,-177)" stroke="url(#linearGradient7)">
      <path d="M731.5 386 L926.5 386 L916.5 426 L741.5 426 Z" stroke="none" clip-path="url(#clipPath2)"/>
    </g>
    <g text-rendering="geometricPrecision" stroke-miterlimit="1.45" shape-rendering="geometricPrecision" transform="matrix(1,0,0,1,-716,-177)" stroke-linecap="butt">
      <path fill="none" d="M731.5 386 L926.5 386 L916.5 426 L741.5 426 Z" clip-path="url(#clipPath2)"/>
      <text x="762.8184" xml:space="preserve" y="403.4688" clip-path="url(#clipPath2)" font-family="sans-serif" stroke="none">Request formatting via</text>
      <text x="768.1562" xml:space="preserve" y="417.6016" clip-path="url(#clipPath2)" font-family="sans-serif" stroke="none">GUI in Google Sheets</text>
    </g>
    <g fill="url(#linearGradient8)" text-rendering="geometricPrecision" shape-rendering="geometricPrecision" transform="matrix(1,0,0,1,-716,-177)" stroke="url(#linearGradient8)">
      <rect x="731.5" width="195" height="40" y="483" clip-path="url(#clipPath2)" stroke="none"/>
    </g>
    <g text-rendering="geometricPrecision" stroke-miterlimit="1.45" shape-rendering="geometricPrecision" transform="matrix(1,0,0,1,-716,-177)" stroke-linecap="butt">
      <rect fill="none" x="731.5" width="195" height="40" y="483" clip-path="url(#clipPath2)"/>
      <path fill="none" d="M741.5 483 L741.5 523 M916.5 483 L916.5 523 M741.5 483 Z" clip-path="url(#clipPath2)"/>
      <text x="786.8359" xml:space="preserve" y="507.5352" clip-path="url(#clipPath2)" font-family="sans-serif" stroke="none">GAS Formatter</text>
    </g>
    <g text-rendering="geometricPrecision" stroke-miterlimit="1.45" shape-rendering="geometricPrecision" transform="matrix(1,0,0,1,-716,-177)" stroke-linecap="butt">
      <path fill="none" d="M829 232.0347 L829 280.9695" clip-path="url(#clipPath2)"/>
    </g>
    <g text-rendering="geometricPrecision" stroke-miterlimit="1.45" shape-rendering="geometricPrecision" transform="matrix(1,0,0,1,-716,-177)" stroke-linecap="butt">
      <path d="M829 288.9695 L834 276.9695 L829 279.9695 L824 276.9695 Z" stroke="none" clip-path="url(#clipPath2)"/>
      <path fill="none" d="M1244.5 426.0107 L1244.5 440.0305" clip-path="url(#clipPath2)"/>
      <path d="M1244.5 448.0305 L1249.5 436.0305 L1244.5 439.0305 L1239.5 436.0305 Z" clip-path="url(#clipPath2)" stroke="none"/>
      <path fill="none" d="M1244.5 488.0107 L1244.5 502.0305" clip-path="url(#clipPath2)"/>
      <path d="M1244.5 510.0305 L1249.5 498.0305 L1244.5 501.0305 L1239.5 498.0305 Z" clip-path="url(#clipPath2)" stroke="none"/>
      <path fill="none" d="M1244.5 549.9988 L1244.5 566.4658" clip-path="url(#clipPath2)"/>
      <path d="M1244.5 574.4658 L1249.5 562.4658 L1244.5 565.4658 L1239.5 562.4658 Z" clip-path="url(#clipPath2)" stroke="none"/>
      <path fill="none" d="M829 329.0347 L829 377.9695" clip-path="url(#clipPath2)"/>
      <path d="M829 385.9695 L834 373.9695 L829 376.9695 L824 373.9695 Z" clip-path="url(#clipPath2)" stroke="none"/>
      <path fill="none" d="M921.4883 406 L1138.9893 406" clip-path="url(#clipPath2)"/>
      <path d="M1146.9893 406 L1134.9893 401 L1137.9893 406 L1134.9893 411 Z" clip-path="url(#clipPath2)" stroke="none"/>
      <rect x="958.9883" y="396.9336" clip-path="url(#clipPath2)" fill="white" width="155.5234" height="18.1328" stroke="none"/>
      <text x="960.9883" xml:space="preserve" y="410.5352" clip-path="url(#clipPath2)" font-family="sans-serif" stroke="none">Array of values &lt;string[]&gt;</text>
      <path fill="none" d="M1146.9904 594.5 L829 594.5 L829 530.9709" clip-path="url(#clipPath2)"/>
      <path d="M829 522.9709 L824 534.9709 L829 531.9709 L834 534.9709 Z" clip-path="url(#clipPath2)" stroke="none"/>
      <rect x="897.4098" y="585.4336" clip-path="url(#clipPath2)" fill="white" width="186.3027" height="18.1328" stroke="none"/>
      <text x="899.4099" xml:space="preserve" y="599.0352" clip-path="url(#clipPath2)" font-family="sans-serif" stroke="none">Formatting instructions &lt;TBC&gt;</text>
      <path fill="none" d="M829 482.9653 L829 434.0305" clip-path="url(#clipPath2)"/>
      <path d="M829 426.0305 L824 438.0305 L829 435.0305 L834 438.0305 Z" clip-path="url(#clipPath2)" stroke="none"/>
    </g>
  </g>
</svg>
